<?xml version="1.0" standalone="no"?>
<!DOCTYPE svg PUBLIC "-//W3C//DTD SVG 20010904//EN"
 "http://www.w3.org/TR/2001/REC-SVG-20010904/DTD/svg10.dtd">
<svg version="1.0" xmlns="http://www.w3.org/2000/svg"
 width="433.000000pt" height="433.000000pt" viewBox="0 0 433.000000 433.000000"
 preserveAspectRatio="xMidYMid meet">
<metadata>
Created by potrace 1.14, written by Peter Selinger 2001-2017
</metadata>
<g transform="translate(0.000000,433.000000) scale(0.100000,-0.100000)"
fill="#000000" stroke="none">
<path d="M1947 4300 c-722 -76 -1364 -518 -1688 -1163 -103 -205 -158 -366
-200 -592 -30 -156 -37 -484 -15 -651 83 -629 432 -1179 969 -1528 115 -75
344 -185 482 -230 914 -303 1927 49 2458 854 237 359 351 745 350 1185 -1 344
-63 621 -207 920 -303 631 -885 1068 -1581 1186 -139 23 -430 33 -568 19z
m563 -60 c771 -133 1401 -671 1646 -1404 144 -435 146 -886 4 -1320 -349
-1067 -1483 -1671 -2563 -1366 -396 112 -746 334 -1014 645 -495 573 -645
1355 -396 2069 68 197 178 401 305 569 77 102 259 290 358 370 307 248 707
413 1110 457 135 14 406 4 550 -20z"/>
<path d="M2656 3645 c-13 -14 -38 -63 -56 -111 -19 -47 -46 -103 -61 -124 -15
-21 -37 -56 -48 -79 -12 -22 -25 -40 -29 -38 -5 1 -42 -38 -84 -88 -42 -49
-118 -130 -170 -180 -78 -74 -102 -104 -131 -165 -20 -41 -37 -67 -37 -58 0
31 -20 30 -53 -3 -17 -18 -73 -67 -123 -110 -63 -54 -96 -91 -110 -121 l-19
-43 -5 40 -5 40 -56 -70 c-150 -186 -220 -322 -254 -490 -32 -160 -53 -306
-66 -462 -10 -122 -9 -134 16 -253 47 -224 123 -604 127 -632 2 -21 6 -25 17
-19 12 8 11 24 -3 113 -24 141 -31 283 -17 336 24 87 112 157 283 223 94 37
128 58 255 153 181 136 236 187 227 210 -3 9 -16 16 -28 16 -14 0 1 12 43 35
81 43 99 60 121 110 10 22 72 117 139 210 114 161 137 204 109 205 -7 1 14 15
47 32 76 39 101 61 132 121 45 90 80 270 53 279 -5 2 6 26 25 53 46 66 61 119
82 287 16 131 17 142 1 151 -14 9 -14 13 -2 33 13 19 13 29 -6 85 -44 129
-134 272 -199 316 -45 30 -86 30 -115 -2z m-117 -381 c-73 -228 -148 -343
-599 -908 -308 -385 -392 -531 -460 -794 -23 -89 -49 -257 -51 -322 -1 -40 -3
-34 -26 55 -33 133 -33 262 2 500 36 246 58 344 100 431 38 79 143 240 175
269 20 18 20 17 20 -43 0 -88 22 -83 50 11 33 106 40 117 155 217 l105 91 1
-53 c0 -29 4 -75 7 -103 l7 -50 27 108 c43 174 71 223 197 346 59 58 126 128
149 154 l40 48 -5 -43 -4 -43 25 30 c14 17 36 59 47 95 22 67 60 132 66 113 2
-6 -10 -55 -28 -109z m152 -235 l97 -311 -93 -43 c-96 -44 -115 -59 -97 -77 8
-8 40 -1 110 24 l100 35 11 -39 c14 -44 6 -78 -35 -159 -33 -66 -69 -92 -194
-140 -83 -32 -110 -47 -110 -61 0 -15 7 -17 48 -12 26 3 55 7 65 9 16 3 16 1
-2 -23 -10 -15 -60 -85 -111 -157 -51 -71 -101 -149 -111 -172 -11 -23 -34
-54 -52 -69 -44 -37 -141 -81 -206 -94 -62 -12 -66 -14 -58 -35 5 -11 23 -15
78 -15 61 0 70 -2 60 -14 -7 -8 -78 -65 -158 -127 -114 -88 -167 -121 -237
-151 -50 -21 -120 -52 -155 -70 -79 -39 -166 -122 -176 -167 -14 -64 -17 -21
-6 77 26 220 92 465 165 610 51 101 157 254 302 437 426 538 552 730 625 956
19 59 36 105 38 103 3 -3 48 -144 102 -315z"/>
</g>
</svg>
