<svg xmlns="http://www.w3.org/2000/svg" viewBox="0 0 65.93 50.19"><defs><style>.cls-1,.cls-2,.cls-3{fill:#fff;stroke:#3a3a3a;stroke-miterlimit:10;}.cls-1{stroke-width:0.6px;}.cls-2{stroke-width:0.71px;}.cls-3{stroke-width:0.52px;}</style></defs><g id="Layer_2" data-name="Layer 2"><g id="Layer_1-2" data-name="Layer 1"><ellipse class="cls-1" cx="49.78" cy="13.89" rx="15.85" ry="13.59"/><path class="cls-2" d="M46.23,16.44a16.08,16.08,0,0,0-13.78-7.3c-7.53,0-13.81,4.73-15.37,11.05H16.7c-9,0-16.35,6.56-16.35,14.65S7.67,49.47,16.7,49.47c6.25,0,11,.37,16.37.37s6.3,0,12.54-.37c10.16-.6,18.44-7.4,18.44-16.52C64.05,24,56.13,16.74,46.23,16.44Z"/><path class="cls-3" d="M33.51,26.37c.61-4.68,7-8.95,10.5-9.4l2.22-.53"/></g></g></svg>