<svg xmlns="http://www.w3.org/2000/svg" viewBox="0 0 65.92 71.47"><defs><style>.cls-1,.cls-2,.cls-3,.cls-4,.cls-5{fill:#fff;stroke:#3a3a3a;stroke-miterlimit:10;}.cls-1{stroke-width:0.59px;}.cls-2{stroke-width:0.7px;}.cls-3{stroke-width:0.52px;}.cls-4{stroke-width:0.39px;}.cls-5{stroke-width:0.39px;}</style></defs><g id="Layer_2" data-name="Layer 2"><g id="Layer_1-2" data-name="Layer 1"><ellipse class="cls-1" cx="49.78" cy="13.72" rx="15.85" ry="13.42"/><path class="cls-2" d="M46.23,16.24A16.17,16.17,0,0,0,32.44,9C24.92,9,18.64,13.71,17.08,20H16.7c-9,0-16.35,6.48-16.35,14.47S7.67,48.87,16.7,48.87c6.25,0,11,.36,16.37.36s6.29,0,12.53-.36c10.17-.59,18.45-7.31,18.45-16.32C64.05,23.72,56.13,16.54,46.23,16.24Z"/><path class="cls-3" d="M33.5,26.05c.62-4.62,7-8.84,10.51-9.28l2.22-.53"/><ellipse class="cls-4" cx="30.99" cy="54.76" rx="1.13" ry="3.52"/><ellipse class="cls-5" cx="42.73" cy="52.76" rx="1.13" ry="3.52"/><ellipse class="cls-5" cx="19.63" cy="56.76" rx="1.13" ry="3.52"/><ellipse class="cls-4" cx="30.99" cy="64.76" rx="1.13" ry="3.52"/><ellipse class="cls-5" cx="42.73" cy="61.76" rx="1.13" ry="3.52"/><ellipse class="cls-5" cx="19.63" cy="67.76" rx="1.13" ry="3.52"/></g></g></svg>