<svg xmlns="http://www.w3.org/2000/svg" viewBox="0 0 65.92 71"><defs><style>.cls-1{fill:#a6a6aa;stroke-width:0.59px;}.cls-1,.cls-2,.cls-3,.cls-4,.cls-5{stroke:#3a3a3a;stroke-miterlimit:10;}.cls-2,.cls-3,.cls-4,.cls-5{fill:#fff;}.cls-2{stroke-width:0.7px;}.cls-3{stroke-width:0.52px;}.cls-4{stroke-width:0.39px;}.cls-5{stroke-width:0.39px;}</style></defs><g id="Layer_2" data-name="Layer 2"><g id="Layer_1-2" data-name="Layer 1"><ellipse class="cls-1" cx="49.78" cy="13.65" rx="15.85" ry="13.36"/><path class="cls-2" d="M46.23,16.16A16.18,16.18,0,0,0,32.44,9c-7.52,0-13.8,4.65-15.36,10.86H16.7c-9,0-16.35,6.45-16.35,14.4S7.67,48.63,16.7,48.63c6.24,0,11,.36,16.37.36s6.29,0,12.53-.36c10.17-.58,18.45-7.27,18.45-16.24C64.05,23.61,56.13,16.46,46.23,16.16Z"/><path class="cls-3" d="M33.5,25.92c.62-4.59,7-8.79,10.51-9.24l2.22-.52"/><ellipse class="cls-4" cx="32.01" cy="54.28" rx="1.13" ry="3.52"/><ellipse class="cls-5" cx="43.75" cy="52.29" rx="1.13" ry="3.52"/><ellipse class="cls-5" cx="20.65" cy="56.28" rx="1.13" ry="3.52"/><ellipse class="cls-4" cx="32.01" cy="64.28" rx="1.13" ry="3.52"/><ellipse class="cls-5" cx="43.75" cy="61.29" rx="1.13" ry="3.52"/><ellipse class="cls-5" cx="20.65" cy="67.28" rx="1.13" ry="3.52"/></g></g></svg>