<svg xmlns="http://www.w3.org/2000/svg" viewBox="0 0 38.6 40.88"><defs><style>.cls-1,.cls-2{fill:none;stroke:#3a3a3a;stroke-miterlimit:10;}.cls-2{stroke-width:1.05px;}</style></defs><g id="Layer_2" data-name="Layer 2"><g id="Layer_1-2" data-name="Layer 1"><path class="cls-1" d="M25.54,20.53v1.94c3.71,1.8,11.38,0,11.38,0l.9,1.46-4.28,2.7L37,30.35,35.9,31l-4.73-.84v4.62L30,35l-1.8-2.08a9.14,9.14,0,0,0-1.58-4.45s-.33-1.81-3.49-3l-1.92,1.8c-1.57,3.6,5.41,9.35,5.41,9.35l-1.12,1.24-4.29-1.58-1.57,4.17H18.53L17,36.21l-3.75,2.14-1.55-1.69s5.41-4.5,5.29-9.57L14.49,25.4c-2.81,1.35-5.85,9.46-5.85,9.46H7.51l-.58-4.51L2,31,1.43,29.9,5,26.63.64,23.93,1.43,22c5.74,3,11.15.45,11.6,0a.94.94,0,0,0,.19-.57,7.33,7.33,0,0,0-.19-1.8A12.83,12.83,0,0,0,8.52,18c-2.14-.23-7.21,1.13-7.21,1.13L.64,17.62l4.45-2.7-3.44-3V10.52l5.3,1,.56-5h1S11.87,15,15,16.16l2.25-1.24c-.11-4.73-5.52-10.48-5.52-10.48l1-1.18L17.09,6,18.53.5h1L21.25,6l4.29-2.6,1.12,1c-5.63,5.29-5.4,10.48-5.4,10.48s.22,1.27,2.7.9,5.46-9.24,5.46-9.24h1.07l.38,5,5.41-1.27.41.86-3,3.72,4.17,3.3-1.35,1.2c-6.43-2.7-10.93,0-10.93,0Z"/><path class="cls-2" d="M23,20.53c-.19,4.64-7.49,3.76-7.44,1.1a1.4,1.4,0,0,1,.1-.51c1.08-3.05,3.14-3.05,3.14-3.05S23.07,18.58,23,20.53Z"/></g></g></svg>