<svg xmlns="http://www.w3.org/2000/svg" viewBox="0 0 68.38 72.52"><defs><style>.cls-1,.cls-4{fill:#a6a6aa;}.cls-1,.cls-2,.cls-3,.cls-4{stroke:#3a3a3a;stroke-miterlimit:10;}.cls-1{stroke-width:0.62px;}.cls-2,.cls-3{fill:#fff;}.cls-2{stroke-width:0.74px;}.cls-3{stroke-width:0.54px;}.cls-4{stroke-width:0.54px;}</style></defs><g id="Layer_2" data-name="Layer 2"><g id="Layer_1-2" data-name="Layer 1"><ellipse class="cls-1" cx="51.63" cy="14.62" rx="16.44" ry="14.31"/><path class="cls-2" d="M48,17.31A16.66,16.66,0,0,0,33.65,9.63c-7.8,0-14.31,5-15.93,11.64h-.4C8,21.26.37,28.16.37,36.68S8,52.1,17.32,52.1c6.48,0,11.38.39,17,.39s6.53,0,13-.39c10.55-.63,19.13-7.79,19.13-17.4C66.43,25.29,58.22,17.63,48,17.31Z"/><path class="cls-3" d="M34.75,27.77c.64-4.93,7.24-9.42,10.9-9.9L48,17.31"/><polygon class="cls-4" points="29.5 46.98 24.21 60.01 31.78 60.01 26.57 72.37 37.98 54.8 31.09 54.8 35.36 46.98 29.5 46.98"/></g></g></svg>