<svg width="28" height="28" viewBox="0 0 28 28" fill="none" xmlns="http://www.w3.org/2000/svg">
<path d="M17.3359 8.04726H22.791V9.3707H17.3359V8.04726ZM11.8699 13.2836C13.0758 12.7066 13.7074 11.8289 13.7074 10.4727C13.7074 7.79023 11.7113 7.13945 9.40625 7.13945H3.0625V20.6035H9.58398C12.0285 20.6035 14.3227 19.4277 14.3227 16.6934C14.3227 15.0035 13.5242 13.7539 11.8699 13.2836V13.2836ZM6.02109 9.43632H8.79648C9.86563 9.43632 10.8254 9.73437 10.8254 10.9758C10.8254 12.1187 10.0789 12.5781 9.0207 12.5781H6.02109V9.43632ZM9.1793 18.3176H6.01836V14.6098H9.24219C10.5437 14.6098 11.3668 15.1539 11.3668 16.532C11.3668 17.8883 10.3852 18.3176 9.1793 18.3176V18.3176ZM24.9238 15.8703C24.9238 12.9855 23.2367 10.582 20.1852 10.582C17.2184 10.582 15.2004 12.816 15.2004 15.7445C15.2004 18.7797 17.1117 20.8633 20.1852 20.8633C22.5121 20.8633 24.0188 19.816 24.7434 17.582H22.3836C22.1266 18.416 21.082 18.8535 20.2699 18.8535C18.7004 18.8535 17.8801 17.9348 17.8801 16.3734H24.9047C24.9129 16.2121 24.9238 16.0426 24.9238 15.8703V15.8703ZM17.8801 14.6836C17.9648 13.4012 18.8207 12.6 20.1004 12.6C21.4457 12.6 22.1184 13.3902 22.2359 14.6836H17.8801Z" fill="#3A3A3A"/>
</svg>
